<svg width="171" height="34" viewBox="0 0 171 34" fill="none" xmlns="http://www.w3.org/2000/svg">
<path d="M0.708047 26.105C0.59138 26.105 0.544713 26.0583 0.568047 25.965C0.59138 25.8717 0.66138 25.825 0.778047 25.825C2.29471 25.6617 3.41471 24.425 4.13805 22.115L9.59805 5.35C9.85471 4.58 9.98305 3.90333 9.98305 3.32C9.98305 2.29333 9.53971 1.745 8.65305 1.675C8.55971 1.675 8.51305 1.64 8.51305 1.57C8.51305 1.52333 8.52471 1.48833 8.54805 1.465C8.59471 1.41833 8.65305 1.395 8.72305 1.395L10.473 1.5H19.713C21.3697 1.5 22.9564 1.38333 24.473 1.15C24.893 1.08 25.208 1.045 25.418 1.045C25.7214 1.045 25.873 1.19666 25.873 1.5L25.803 1.92C25.0097 4.44 24.3097 7.135 23.703 10.005C23.6564 10.145 23.598 10.2267 23.528 10.25C23.458 10.25 23.423 10.18 23.423 10.04C23.4464 9.71333 23.458 9.22333 23.458 8.57C23.458 7.12333 23.318 5.85167 23.038 4.755C22.758 3.65833 22.408 2.9 21.988 2.48C21.708 2.2 21.148 2.01333 20.308 1.92C19.4914 1.80333 18.1847 1.745 16.388 1.745C15.6414 1.745 15.0464 2.41 14.603 3.74L11.663 12.805C11.6164 12.9917 11.593 13.155 11.593 13.295C11.593 13.645 11.733 13.82 12.013 13.82C13.0864 13.82 13.9847 13.7733 14.708 13.68C15.3847 13.5867 15.9914 13.3067 16.528 12.84C17.088 12.35 17.7764 11.4283 18.593 10.075C18.6864 9.91167 18.768 9.83 18.838 9.83C18.908 9.80667 18.9197 9.865 18.873 10.005C18.313 11.195 17.8114 12.56 17.368 14.1C16.9247 15.6167 16.5864 17.005 16.353 18.265C16.3297 18.3817 16.283 18.4517 16.213 18.475C16.143 18.475 16.108 18.405 16.108 18.265C16.1547 16.795 16.0614 15.7683 15.828 15.185C15.5947 14.6017 15.1747 14.275 14.568 14.205C13.8914 14.1117 13.0164 14.065 11.943 14.065C11.5464 14.065 11.208 14.3917 10.928 15.045L8.58305 22.29C8.37305 22.9433 8.26805 23.5033 8.26805 23.97C8.26805 24.5767 8.44305 25.0317 8.79305 25.335C9.16638 25.615 9.67971 25.7783 10.333 25.825C10.473 25.825 10.543 25.86 10.543 25.93C10.543 25.9767 10.508 26.0117 10.438 26.035C10.3914 26.0817 10.3214 26.105 10.228 26.105L7.95305 26H2.49305L0.708047 26.105ZM26.6031 21.765C26.3698 22.535 26.2531 23.1183 26.2531 23.515C26.2531 23.9817 26.4165 24.215 26.7431 24.215C27.0231 24.215 27.2565 24.1333 27.4431 23.97C27.6531 23.8067 27.8748 23.4683 28.1081 22.955C28.3648 22.4417 28.6681 21.6483 29.0181 20.575C29.0648 20.505 29.1231 20.47 29.1931 20.47C29.2398 20.47 29.2748 20.4933 29.2981 20.54C29.3215 20.5867 29.3215 20.6567 29.2981 20.75C28.7615 22.5 28.0381 23.9 27.1281 24.95C26.2415 25.9767 25.1565 26.49 23.8731 26.49C22.5198 26.49 21.8431 25.825 21.8431 24.495C21.8431 23.9117 21.9715 23.235 22.2281 22.465L24.9231 14.24C25.1565 13.47 25.2731 12.8867 25.2731 12.49C25.2731 12 25.1098 11.755 24.7831 11.755C24.5031 11.755 24.2581 11.8367 24.0481 12C23.8615 12.1633 23.6398 12.5133 23.3831 13.05C23.1498 13.5633 22.8581 14.3567 22.5081 15.43C22.4848 15.5 22.4265 15.535 22.3331 15.535C22.2865 15.535 22.2515 15.5117 22.2281 15.465C22.2048 15.4183 22.2048 15.3483 22.2281 15.255C22.7648 13.505 23.4765 12.1167 24.3631 11.09C25.2731 10.04 26.3698 9.515 27.6531 9.515C29.0065 9.515 29.6831 10.18 29.6831 11.51C29.6831 12.0933 29.5548 12.77 29.2981 13.54L26.6031 21.765ZM28.1781 6.085C27.5715 6.085 27.1048 5.96833 26.7781 5.735C26.4748 5.50166 26.3231 5.19833 26.3231 4.825C26.3231 4.38167 26.4981 3.95 26.8481 3.53C27.2215 3.08667 27.7115 2.73667 28.3181 2.48C28.9248 2.2 29.5665 2.06 30.2431 2.06C30.8498 2.06 31.3048 2.17667 31.6081 2.41C31.9348 2.64333 32.0981 2.94667 32.0981 3.32C32.0981 3.53 32.0398 3.775 31.9231 4.055C31.6665 4.63833 31.1765 5.12833 30.4531 5.525C29.7531 5.89833 28.9948 6.085 28.1781 6.085ZM36.8327 5.805C36.926 5.50167 36.9727 5.21 36.9727 4.93C36.9727 4.20667 36.5877 3.90333 35.8177 4.02C35.6777 4.04333 35.596 4.02 35.5727 3.95C35.5727 3.88 35.596 3.82167 35.6427 3.775C36.8794 3.44833 38.116 3.04 39.3527 2.55C40.5894 2.03667 41.6977 1.45333 42.6777 0.799999H42.7477C42.8877 0.799999 42.9227 0.893333 42.8527 1.08C42.2227 2.48 41.441 4.53333 40.5077 7.24L40.1577 8.22L35.6777 21.765C35.4444 22.5817 35.3277 23.1767 35.3277 23.55C35.3277 23.9933 35.4794 24.215 35.7827 24.215C36.086 24.215 36.331 24.1333 36.5177 23.97C36.7277 23.8067 36.9494 23.48 37.1827 22.99C37.416 22.4767 37.7077 21.6717 38.0577 20.575C38.1044 20.505 38.1627 20.47 38.2327 20.47C38.2794 20.47 38.3144 20.4933 38.3377 20.54C38.361 20.5867 38.361 20.6567 38.3377 20.75C37.8244 22.5 37.1127 23.9 36.2027 24.95C35.316 25.9767 34.2194 26.49 32.9127 26.49C31.5827 26.49 30.9177 25.825 30.9177 24.495C30.9177 23.8417 31.0344 23.165 31.2677 22.465L36.8327 5.805ZM45.5387 21.765C45.3053 22.535 45.1887 23.1183 45.1887 23.515C45.1887 23.9817 45.352 24.215 45.6787 24.215C45.9587 24.215 46.192 24.1333 46.3787 23.97C46.5887 23.8067 46.8103 23.4683 47.0437 22.955C47.3003 22.4417 47.6037 21.6483 47.9537 20.575C48.0003 20.505 48.0587 20.47 48.1287 20.47C48.1753 20.47 48.2103 20.4933 48.2337 20.54C48.257 20.5867 48.257 20.6567 48.2337 20.75C47.697 22.5 46.9737 23.9 46.0637 24.95C45.177 25.9767 44.092 26.49 42.8087 26.49C41.4553 26.49 40.7787 25.825 40.7787 24.495C40.7787 23.9117 40.907 23.235 41.1637 22.465L43.8587 14.24C44.092 13.47 44.2087 12.8867 44.2087 12.49C44.2087 12 44.0453 11.755 43.7187 11.755C43.4387 11.755 43.1937 11.8367 42.9837 12C42.797 12.1633 42.5753 12.5133 42.3187 13.05C42.0853 13.5633 41.7937 14.3567 41.4437 15.43C41.4203 15.5 41.362 15.535 41.2687 15.535C41.222 15.535 41.187 15.5117 41.1637 15.465C41.1403 15.4183 41.1403 15.3483 41.1637 15.255C41.7003 13.505 42.412 12.1167 43.2987 11.09C44.2087 10.04 45.3053 9.515 46.5887 9.515C47.942 9.515 48.6187 10.18 48.6187 11.51C48.6187 12.0933 48.4903 12.77 48.2337 13.54L45.5387 21.765ZM47.1137 6.085C46.507 6.085 46.0403 5.96833 45.7137 5.735C45.4103 5.50166 45.2587 5.19833 45.2587 4.825C45.2587 4.38167 45.4337 3.95 45.7837 3.53C46.157 3.08667 46.647 2.73667 47.2537 2.48C47.8603 2.2 48.502 2.06 49.1787 2.06C49.7853 2.06 50.2403 2.17667 50.5437 2.41C50.8703 2.64333 51.0337 2.94667 51.0337 3.32C51.0337 3.53 50.9753 3.775 50.8587 4.055C50.602 4.63833 50.112 5.12833 49.3887 5.525C48.6887 5.89833 47.9303 6.085 47.1137 6.085ZM64.8332 9.445C66.0466 9.445 67.0266 9.865 67.7732 10.705C68.5199 11.5217 68.8932 12.665 68.8932 14.135C68.8932 15.1617 68.6832 16.3283 68.2632 17.635C67.7732 19.175 66.9799 20.6333 65.8832 22.01C64.7866 23.3867 63.5499 24.495 62.1732 25.335C60.7966 26.1517 59.4549 26.56 58.1482 26.56C57.4016 26.56 56.8182 26.4433 56.3982 26.21C55.9782 26 55.6166 25.7433 55.3132 25.44C55.0099 25.1367 54.7999 24.985 54.6832 24.985C54.5432 24.985 54.3916 25.1367 54.2282 25.44L52.9682 29.325C52.6882 30.165 52.5482 30.8883 52.5482 31.495C52.5482 31.9617 52.6532 32.2883 52.8632 32.475C53.0732 32.685 53.3882 32.8017 53.8082 32.825C53.9016 32.825 53.9482 32.8483 53.9482 32.895C53.9482 32.9417 53.9249 32.9883 53.8782 33.035C53.8316 33.0817 53.7732 33.0933 53.7032 33.07C52.8166 33.0233 51.6382 33 50.1682 33C48.2549 33 46.7382 33.0233 45.6182 33.07C45.6416 33.07 45.6416 33.0233 45.6182 32.93C45.5716 32.8367 45.6066 32.79 45.7232 32.79C46.3766 32.79 46.9482 32.5217 47.4382 31.985C47.9282 31.4717 48.3716 30.5733 48.7682 29.29L53.7032 14.24C53.9366 13.47 54.0532 12.8867 54.0532 12.49C54.0532 12.0233 53.8899 11.79 53.5632 11.79C53.2832 11.79 53.0382 11.8717 52.8282 12.035C52.6416 12.1983 52.4199 12.5367 52.1632 13.05C51.9299 13.5633 51.6382 14.3567 51.2882 15.43C51.2649 15.5 51.2066 15.535 51.1132 15.535C51.0666 15.535 51.0316 15.5117 51.0082 15.465C50.9849 15.4183 50.9849 15.3483 51.0082 15.255C51.5449 13.505 52.2566 12.1167 53.1432 11.09C54.0532 10.0633 55.1499 9.55 56.4332 9.55C57.7866 9.55 58.4632 10.215 58.4632 11.545C58.4632 12.0817 58.3816 12.6067 58.2182 13.12C58.1949 13.3533 58.1949 13.5167 58.2182 13.61C58.2416 13.68 58.2999 13.6567 58.3932 13.54C60.5166 10.81 62.6632 9.445 64.8332 9.445ZM63.5032 21.205C64.1099 19.3617 64.4132 17.6467 64.4132 16.06C64.4132 14.7067 64.1799 13.645 63.7132 12.875C63.2466 12.105 62.5932 11.72 61.7532 11.72C60.8199 11.72 59.9332 12.1517 59.0932 13.015C58.2766 13.855 57.6232 15.01 57.1332 16.48L56.4332 18.615L56.4682 18.58C56.0016 20.05 55.7682 21.3217 55.7682 22.395C55.7682 23.515 56.0016 24.4017 56.4682 25.055C56.9582 25.685 57.6582 26 58.5682 26C59.7582 26 60.7499 25.5917 61.5432 24.775C62.3366 23.9583 62.9899 22.7683 63.5032 21.205ZM117.509 1.395C117.602 1.395 117.649 1.43 117.649 1.5C117.649 1.61666 117.567 1.68667 117.404 1.71C116.494 1.87333 115.164 3.37833 113.414 6.225L103.684 22.22C103.45 22.6167 103.357 22.955 103.404 23.235L103.474 23.725V23.795C103.474 24.145 103.287 24.39 102.914 24.53L96.6488 26.56C96.4621 26.6067 96.3338 26.63 96.2638 26.63C96.1005 26.63 95.9721 26.5833 95.8788 26.49C95.8088 26.3967 95.7738 26.28 95.7738 26.14L96.2638 13.54L91.2238 22.115L91.1538 22.22C91.0371 22.3833 90.9555 22.57 90.9088 22.78C90.8855 22.9667 90.8855 23.1183 90.9088 23.235L90.9788 23.725V23.795C90.9788 24.145 90.7921 24.39 90.4188 24.53L84.1188 26.56C83.9321 26.6067 83.8038 26.63 83.7338 26.63C83.5705 26.63 83.4421 26.5833 83.3488 26.49C83.2788 26.3967 83.2438 26.28 83.2438 26.14L84.0138 6.75C84.0838 5.09333 83.9088 3.86833 83.4888 3.075C83.0688 2.25833 82.5788 1.80333 82.0188 1.71C81.9021 1.68667 81.8205 1.62833 81.7738 1.535C81.7505 1.44167 81.7971 1.395 81.9138 1.395C82.8238 1.465 83.4071 1.5 83.6638 1.5H92.0288C92.2155 1.5 92.7288 1.465 93.5688 1.395C93.6388 1.395 93.6738 1.43 93.6738 1.5C93.6738 1.59333 93.6038 1.66333 93.4638 1.71C92.9971 1.80333 92.5655 2.25833 92.1688 3.075C91.7721 3.86833 91.5388 5.08167 91.4688 6.715L90.7688 21.555C90.7688 21.695 90.8271 21.765 90.9438 21.765C91.0605 21.765 91.1538 21.695 91.2238 21.555L95.9488 13.4C96.0888 13.1433 96.1938 12.9217 96.2638 12.735L96.5088 6.715C96.5788 5.08167 96.4271 3.86833 96.0538 3.075C95.7038 2.25833 95.2955 1.80333 94.8288 1.71C94.7121 1.68667 94.6305 1.62833 94.5838 1.535C94.5605 1.44167 94.6071 1.395 94.7238 1.395C95.5638 1.465 96.0771 1.5 96.2638 1.5H104.874C105.247 1.5 106.099 1.465 107.429 1.395C107.569 1.395 107.639 1.43 107.639 1.5C107.639 1.54667 107.604 1.59333 107.534 1.64C107.464 1.66333 107.37 1.68667 107.254 1.71C106.46 1.80333 105.725 2.25833 105.049 3.075C104.395 3.89167 104.034 5.16333 103.964 6.89L103.229 21.59V21.625C103.229 21.765 103.287 21.835 103.404 21.835C103.52 21.835 103.637 21.7533 103.754 21.59L112.994 6.295C113.577 5.36167 113.869 4.53333 113.869 3.81C113.869 3.18 113.67 2.69 113.274 2.34C112.877 1.99 112.434 1.78 111.944 1.71C111.78 1.68667 111.675 1.62833 111.629 1.535C111.582 1.44167 111.629 1.395 111.769 1.395C113.099 1.465 113.927 1.5 114.254 1.5H115.759C116.015 1.5 116.599 1.465 117.509 1.395ZM131.551 19.175C131.574 19.1517 131.621 19.14 131.691 19.14C131.807 19.14 131.854 19.2333 131.831 19.42C131.224 21.6833 130.337 23.4567 129.171 24.74C128.004 26 126.557 26.63 124.831 26.63C123.897 26.63 123.197 26.4083 122.731 25.965C122.287 25.4983 122.066 24.8683 122.066 24.075C122.066 23.4217 122.217 22.6167 122.521 21.66L124.551 15.325C125.017 13.9717 125.251 12.91 125.251 12.14C125.251 11.2533 124.901 10.81 124.201 10.81C123.477 10.81 122.766 11.2417 122.066 12.105C121.366 12.945 120.817 13.9367 120.421 15.08L118.531 20.96C118.344 21.45 118.134 22.0683 117.901 22.815C117.667 23.5383 117.481 24.11 117.341 24.53C117.107 25.2767 116.617 25.7667 115.871 26C115.147 26.2333 114.097 26.35 112.721 26.35H110.831C110.644 26.35 110.516 26.2917 110.446 26.175C110.352 26.0817 110.329 25.9417 110.376 25.755C110.959 24.1917 111.356 23.0367 111.566 22.29C111.776 21.52 111.904 21.065 111.951 20.925L113.876 15.115C114.179 14.135 114.331 13.4 114.331 12.91C114.331 12.5133 114.214 12.315 113.981 12.315C113.701 12.315 113.456 12.4083 113.246 12.595C113.059 12.7817 112.849 13.1667 112.616 13.75C112.382 14.31 112.091 15.185 111.741 16.375C111.717 16.3983 111.671 16.41 111.601 16.41C111.484 16.41 111.437 16.3167 111.461 16.13C112.067 13.8667 112.954 12.105 114.121 10.845C115.287 9.56167 116.734 8.92 118.461 8.92C119.417 8.92 120.117 9.14167 120.561 9.585C121.004 10.0283 121.226 10.6583 121.226 11.475C121.226 11.8483 121.167 12.3033 121.051 12.84C121.774 11.72 122.661 10.7867 123.711 10.04C124.784 9.29333 125.962 8.92 127.246 8.92C128.599 8.92 129.637 9.25833 130.361 9.935C131.084 10.5883 131.446 11.5567 131.446 12.84C131.446 13.82 131.247 14.905 130.851 16.095L129.416 20.47C129.089 21.4967 128.926 22.2317 128.926 22.675C128.926 23.0717 129.054 23.27 129.311 23.27C129.591 23.27 129.824 23.1767 130.011 22.99C130.221 22.8033 130.442 22.4183 130.676 21.835C130.909 21.2517 131.201 20.365 131.551 19.175ZM145.644 8.92C147.417 8.92 148.782 9.24667 149.739 9.9C150.696 10.5533 151.174 11.4517 151.174 12.595C151.174 13.1083 151.092 13.61 150.929 14.1C150.346 15.8733 149.167 17.25 147.394 18.23C145.621 19.1867 143.369 19.6883 140.639 19.735C141.082 20.9017 141.701 21.8467 142.494 22.57C143.311 23.27 144.244 23.62 145.294 23.62C145.667 23.62 146.017 23.55 146.344 23.41C146.671 23.27 147.056 23.025 147.499 22.675C147.546 22.675 147.581 22.71 147.604 22.78C147.627 22.85 147.581 22.9317 147.464 23.025C146.344 24.0983 144.932 24.9967 143.229 25.72C141.572 26.8867 140.569 28.03 140.219 29.15C140.126 29.4067 140.079 29.6633 140.079 29.92C140.079 30.5733 140.464 30.9 141.234 30.9C142.517 30.9 143.381 30.1533 143.824 28.66C143.871 28.52 143.952 28.45 144.069 28.45C144.186 28.45 144.221 28.52 144.174 28.66C143.777 29.8033 143.031 30.7717 141.934 31.565C140.837 32.3583 139.542 32.755 138.049 32.755C137.326 32.755 136.766 32.6267 136.369 32.37C135.972 32.1133 135.774 31.7517 135.774 31.285C135.774 30.585 136.089 29.92 136.719 29.29C137.372 28.6833 138.084 28.17 138.854 27.75C139.624 27.33 140.674 26.7933 142.004 26.14C140.931 26.49 139.927 26.665 138.994 26.665C137.221 26.665 135.786 26.175 134.689 25.195C133.592 24.1917 133.044 22.8267 133.044 21.1C133.044 20.1667 133.219 19.1633 133.569 18.09C134.082 16.5267 134.957 15.045 136.194 13.645C137.454 12.2217 138.912 11.0783 140.569 10.215C142.249 9.35167 143.941 8.92 145.644 8.92ZM143.579 16.865C144.046 15.465 144.279 14.1583 144.279 12.945C144.279 11.965 144.139 11.1833 143.859 10.6C143.579 10.0167 143.217 9.725 142.774 9.725C142.307 9.725 141.887 9.935 141.514 10.355C141.164 10.7517 140.837 11.405 140.534 12.315C140.161 13.435 139.974 14.6483 139.974 15.955C139.974 17.1917 140.149 18.335 140.499 19.385C141.269 19.3383 141.899 19.14 142.389 18.79C142.879 18.44 143.276 17.7983 143.579 16.865ZM169.893 19.14C170.057 19.14 170.103 19.2333 170.033 19.42C169.497 21.7067 168.61 23.48 167.373 24.74C166.137 26 164.76 26.63 163.243 26.63C162.287 26.63 161.528 26.4083 160.968 25.965C160.408 25.5217 160.128 24.81 160.128 23.83C160.128 23.2 160.245 22.4883 160.478 21.695C160.688 20.9483 160.793 20.4117 160.793 20.085C160.793 19.875 160.758 19.7117 160.688 19.595C160.618 19.4783 160.513 19.3967 160.373 19.35C160.28 19.3267 160.128 19.315 159.918 19.315C159.638 19.315 159.417 19.3383 159.253 19.385C159.183 19.4317 159.078 19.4783 158.938 19.525L158.833 19.56C158.763 19.56 158.728 19.5133 158.728 19.42C158.728 19.3267 158.787 19.2567 158.903 19.21L160.513 18.545C161.937 17.845 162.928 17.0633 163.488 16.2C164.048 15.3367 164.328 14.4967 164.328 13.68C164.328 13.1667 164.212 12.7583 163.978 12.455C163.745 12.1517 163.453 12 163.103 12C162.567 12 161.995 12.3267 161.388 12.98C160.782 13.61 160.082 14.905 159.288 16.865L157.923 20.96C157.737 21.45 157.527 22.0683 157.293 22.815C157.06 23.5383 156.873 24.11 156.733 24.53C156.5 25.2767 156.022 25.7667 155.298 26C154.575 26.2333 153.513 26.35 152.113 26.35H150.258C150.048 26.35 149.908 26.2917 149.838 26.175C149.745 26.0817 149.722 25.9417 149.768 25.755C150.165 24.635 150.62 23.2817 151.133 21.695L151.378 20.925L155.858 7.485C156.022 6.97167 156.103 6.54 156.103 6.19C156.103 5.49 155.742 5.16333 155.018 5.21H154.948C154.808 5.21 154.738 5.175 154.738 5.105C154.738 5.01167 154.762 4.94167 154.808 4.895C158.705 3.845 161.983 2.445 164.643 0.694998L164.748 0.659999C164.935 0.659999 164.982 0.788332 164.888 1.045C164.025 3.005 163.103 5.46667 162.123 8.43C162.053 8.57 161.995 8.71 161.948 8.85C161.925 8.99 161.89 9.11833 161.843 9.235L160.268 13.925C161.528 12.2917 162.777 11.055 164.013 10.215C165.25 9.35167 166.522 8.92 167.828 8.92C168.645 8.92 169.275 9.14167 169.718 9.585C170.162 10.005 170.383 10.5417 170.383 11.195C170.383 12.385 169.812 13.4817 168.668 14.485C167.525 15.4883 165.938 16.4683 163.908 17.425C164.445 17.3083 164.888 17.25 165.238 17.25C166.685 17.25 167.408 17.9617 167.408 19.385C167.408 19.7117 167.35 20.19 167.233 20.82C167.07 21.4733 166.988 21.9867 166.988 22.36C166.988 22.9667 167.163 23.27 167.513 23.27C167.887 23.27 168.225 23.0017 168.528 22.465C168.832 21.905 169.24 20.82 169.753 19.21L169.893 19.14Z" fill="white"/>
</svg>
